<mxfile host="app.diagrams.net" modified="2021-02-24T07:12:07.027Z" agent="5.0 (Macintosh; Intel Mac OS X 10_15_7) AppleWebKit/537.36 (KHTML, like Gecko) Chrome/88.0.4324.182 Safari/537.36" etag="T1palJCx_xB-QvFOf_ri" version="14.4.2" type="github">
  <diagram id="AtRW8Q8L1CJCGrD88rt3" name="Page-1">
    <mxGraphModel dx="946" dy="614" grid="1" gridSize="10" guides="1" tooltips="1" connect="1" arrows="1" fold="1" page="1" pageScale="1" pageWidth="827" pageHeight="1169" background="#F4F1DE" math="0" shadow="0">
      <root>
        <mxCell id="0" />
        <mxCell id="1" parent="0" />
        <mxCell id="puQkV_bbzkEbfSVkpx3r-17" style="edgeStyle=orthogonalEdgeStyle;rounded=0;orthogonalLoop=1;jettySize=auto;html=1;exitX=0;exitY=0.5;exitDx=0;exitDy=0;entryX=1;entryY=0.5;entryDx=0;entryDy=0;fontSize=16;strokeColor=#E07A5F;fontColor=#393C56;labelBackgroundColor=#F4F1DE;" edge="1" parent="1" source="puQkV_bbzkEbfSVkpx3r-1" target="puQkV_bbzkEbfSVkpx3r-4">
          <mxGeometry relative="1" as="geometry" />
        </mxCell>
        <mxCell id="puQkV_bbzkEbfSVkpx3r-20" value="是" style="edgeLabel;html=1;align=center;verticalAlign=middle;resizable=0;points=[];fontSize=16;fontColor=#393C56;labelBackgroundColor=#F4F1DE;" vertex="1" connectable="0" parent="puQkV_bbzkEbfSVkpx3r-17">
          <mxGeometry x="-0.0571" y="-1" relative="1" as="geometry">
            <mxPoint as="offset" />
          </mxGeometry>
        </mxCell>
        <mxCell id="puQkV_bbzkEbfSVkpx3r-18" style="edgeStyle=orthogonalEdgeStyle;rounded=0;orthogonalLoop=1;jettySize=auto;html=1;exitX=0.5;exitY=1;exitDx=0;exitDy=0;entryX=0.5;entryY=0;entryDx=0;entryDy=0;fontSize=16;strokeColor=#E07A5F;fontColor=#393C56;labelBackgroundColor=#F4F1DE;" edge="1" parent="1" source="puQkV_bbzkEbfSVkpx3r-1" target="puQkV_bbzkEbfSVkpx3r-6">
          <mxGeometry relative="1" as="geometry" />
        </mxCell>
        <mxCell id="puQkV_bbzkEbfSVkpx3r-19" value="否" style="edgeLabel;html=1;align=center;verticalAlign=middle;resizable=0;points=[];fontSize=16;fontColor=#393C56;labelBackgroundColor=#F4F1DE;" vertex="1" connectable="0" parent="puQkV_bbzkEbfSVkpx3r-18">
          <mxGeometry x="-0.24" y="-2" relative="1" as="geometry">
            <mxPoint as="offset" />
          </mxGeometry>
        </mxCell>
        <mxCell id="puQkV_bbzkEbfSVkpx3r-1" value="newWidget&lt;br style=&quot;font-size: 16px;&quot;&gt;是否为null" style="rhombus;whiteSpace=wrap;html=1;fontSize=16;fillColor=#F2CC8F;fontColor=#393C56;strokeColor=none;" vertex="1" parent="1">
          <mxGeometry x="320" y="130" width="120" height="110" as="geometry" />
        </mxCell>
        <mxCell id="puQkV_bbzkEbfSVkpx3r-4" value="return null" style="rounded=1;whiteSpace=wrap;html=1;fontSize=16;fillColor=#f8cecc;strokeColor=none;" vertex="1" parent="1">
          <mxGeometry x="130" y="155" width="120" height="60" as="geometry" />
        </mxCell>
        <mxCell id="puQkV_bbzkEbfSVkpx3r-7" value="否" style="edgeStyle=orthogonalEdgeStyle;rounded=0;orthogonalLoop=1;jettySize=auto;html=1;exitX=0.5;exitY=1;exitDx=0;exitDy=0;fontSize=16;strokeColor=#E07A5F;fontColor=#393C56;labelBackgroundColor=#F4F1DE;" edge="1" parent="1" source="puQkV_bbzkEbfSVkpx3r-6">
          <mxGeometry relative="1" as="geometry">
            <mxPoint x="380" y="450" as="targetPoint" />
          </mxGeometry>
        </mxCell>
        <mxCell id="puQkV_bbzkEbfSVkpx3r-9" style="edgeStyle=orthogonalEdgeStyle;rounded=0;orthogonalLoop=1;jettySize=auto;html=1;exitX=1;exitY=0.5;exitDx=0;exitDy=0;fontSize=16;entryX=0;entryY=0.5;entryDx=0;entryDy=0;strokeColor=#E07A5F;fontColor=#393C56;labelBackgroundColor=#F4F1DE;" edge="1" parent="1" source="puQkV_bbzkEbfSVkpx3r-6" target="puQkV_bbzkEbfSVkpx3r-33">
          <mxGeometry relative="1" as="geometry">
            <mxPoint x="520" y="335" as="targetPoint" />
          </mxGeometry>
        </mxCell>
        <mxCell id="puQkV_bbzkEbfSVkpx3r-13" value="是" style="edgeLabel;html=1;align=center;verticalAlign=middle;resizable=0;points=[];fontSize=16;fontColor=#393C56;labelBackgroundColor=#F4F1DE;" vertex="1" connectable="0" parent="puQkV_bbzkEbfSVkpx3r-9">
          <mxGeometry x="0.0889" y="-1" relative="1" as="geometry">
            <mxPoint as="offset" />
          </mxGeometry>
        </mxCell>
        <mxCell id="puQkV_bbzkEbfSVkpx3r-6" value="child&lt;br style=&quot;font-size: 16px;&quot;&gt;是否为null" style="rhombus;whiteSpace=wrap;html=1;fontSize=16;fillColor=#F2CC8F;fontColor=#393C56;strokeColor=none;" vertex="1" parent="1">
          <mxGeometry x="330" y="290" width="100" height="90" as="geometry" />
        </mxCell>
        <mxCell id="puQkV_bbzkEbfSVkpx3r-14" value="return newElement" style="rounded=1;whiteSpace=wrap;html=1;fontSize=16;fillColor=#d5e8d4;strokeColor=none;" vertex="1" parent="1">
          <mxGeometry x="320" y="800" width="120" height="60" as="geometry" />
        </mxCell>
        <mxCell id="puQkV_bbzkEbfSVkpx3r-21" value="否" style="edgeStyle=orthogonalEdgeStyle;rounded=0;orthogonalLoop=1;jettySize=auto;html=1;exitX=0.5;exitY=1;exitDx=0;exitDy=0;fontSize=16;strokeColor=#E07A5F;fontColor=#393C56;labelBackgroundColor=#F4F1DE;" edge="1" parent="1" source="puQkV_bbzkEbfSVkpx3r-16">
          <mxGeometry relative="1" as="geometry">
            <mxPoint x="380" y="630" as="targetPoint" />
          </mxGeometry>
        </mxCell>
        <mxCell id="puQkV_bbzkEbfSVkpx3r-22" value="是" style="edgeStyle=orthogonalEdgeStyle;rounded=0;orthogonalLoop=1;jettySize=auto;html=1;exitX=1;exitY=0.5;exitDx=0;exitDy=0;fontSize=16;strokeColor=#E07A5F;fontColor=#393C56;labelBackgroundColor=#F4F1DE;" edge="1" parent="1" source="puQkV_bbzkEbfSVkpx3r-16">
          <mxGeometry relative="1" as="geometry">
            <mxPoint x="560" y="505" as="targetPoint" />
          </mxGeometry>
        </mxCell>
        <mxCell id="puQkV_bbzkEbfSVkpx3r-16" value="oldWidgt、 newWidget是否相等" style="rhombus;whiteSpace=wrap;html=1;fontSize=16;fillColor=#F2CC8F;fontColor=#393C56;strokeColor=none;" vertex="1" parent="1">
          <mxGeometry x="300" y="450" width="160" height="110" as="geometry" />
        </mxCell>
        <mxCell id="puQkV_bbzkEbfSVkpx3r-23" value="return child" style="rounded=1;whiteSpace=wrap;html=1;fontSize=16;fillColor=#dae8fc;strokeColor=none;" vertex="1" parent="1">
          <mxGeometry x="560" y="475" width="120" height="60" as="geometry" />
        </mxCell>
        <mxCell id="puQkV_bbzkEbfSVkpx3r-26" style="edgeStyle=orthogonalEdgeStyle;rounded=0;orthogonalLoop=1;jettySize=auto;html=1;exitX=0.5;exitY=1;exitDx=0;exitDy=0;fontSize=16;strokeColor=#E07A5F;fontColor=#393C56;labelBackgroundColor=#F4F1DE;" edge="1" parent="1" source="puQkV_bbzkEbfSVkpx3r-25">
          <mxGeometry relative="1" as="geometry">
            <mxPoint x="380" y="800" as="targetPoint" />
          </mxGeometry>
        </mxCell>
        <mxCell id="puQkV_bbzkEbfSVkpx3r-31" value="否" style="edgeLabel;html=1;align=center;verticalAlign=middle;resizable=0;points=[];fontSize=16;fontColor=#393C56;labelBackgroundColor=#F4F1DE;" vertex="1" connectable="0" parent="puQkV_bbzkEbfSVkpx3r-26">
          <mxGeometry x="-0.2286" y="2" relative="1" as="geometry">
            <mxPoint as="offset" />
          </mxGeometry>
        </mxCell>
        <mxCell id="puQkV_bbzkEbfSVkpx3r-28" style="edgeStyle=orthogonalEdgeStyle;rounded=0;orthogonalLoop=1;jettySize=auto;html=1;exitX=1;exitY=0.5;exitDx=0;exitDy=0;fontSize=16;strokeColor=#E07A5F;fontColor=#393C56;labelBackgroundColor=#F4F1DE;" edge="1" parent="1" source="puQkV_bbzkEbfSVkpx3r-25">
          <mxGeometry relative="1" as="geometry">
            <mxPoint x="550" y="680" as="targetPoint" />
          </mxGeometry>
        </mxCell>
        <mxCell id="puQkV_bbzkEbfSVkpx3r-29" value="是" style="edgeLabel;html=1;align=center;verticalAlign=middle;resizable=0;points=[];fontSize=16;fontColor=#393C56;labelBackgroundColor=#F4F1DE;" vertex="1" connectable="0" parent="puQkV_bbzkEbfSVkpx3r-28">
          <mxGeometry x="0.2545" y="2" relative="1" as="geometry">
            <mxPoint as="offset" />
          </mxGeometry>
        </mxCell>
        <mxCell id="puQkV_bbzkEbfSVkpx3r-25" value="key、runtimeType相等？" style="rhombus;whiteSpace=wrap;html=1;fontSize=16;fillColor=#F2CC8F;fontColor=#393C56;strokeColor=none;" vertex="1" parent="1">
          <mxGeometry x="320" y="630" width="120" height="100" as="geometry" />
        </mxCell>
        <mxCell id="puQkV_bbzkEbfSVkpx3r-30" value="return child" style="rounded=1;whiteSpace=wrap;html=1;fontSize=16;fillColor=#dae8fc;strokeColor=none;" vertex="1" parent="1">
          <mxGeometry x="560" y="650" width="120" height="60" as="geometry" />
        </mxCell>
        <mxCell id="puQkV_bbzkEbfSVkpx3r-33" value="return newElement" style="rounded=1;whiteSpace=wrap;html=1;fontSize=16;fillColor=#d5e8d4;strokeColor=none;" vertex="1" parent="1">
          <mxGeometry x="550" y="305" width="120" height="60" as="geometry" />
        </mxCell>
      </root>
    </mxGraphModel>
  </diagram>
</mxfile>
